<svg xmlns="http://www.w3.org/2000/svg" width="250" height="250" viewBox="0 0 250 250">
<!-- SVG created with Arrow, by QuiverAI (https://quiver.ai) -->
  <path d="m7.01 187.2c0 18.91 4.01 31.48 13.82 42.15 10.83 11.58 22.96 16.55 46.38 16.55h116.1c23.42 0 35.56-4.97 46.38-16.55 9.81-10.67 13.82-23.24 13.82-42.15v-124.4c0-18.91-3.34-31.48-13.14-42.76-9.7-11.7-22.37-20.01-44.17-20.01h-121.9c-21.8 0-34.47 8.31-44.17 20.01-9.8 11.71-13.14 24.27-13.14 43.18v124z" fill="#000"/>
  <path d="m195 136.9-12.76-10.99-36.66 29.85c-6.79 5.57-13.16 6.95-20.91 6.95-7.74 0-14.53-2.36-19.9-7.14l-36.66-29.45-12.37 10.78c-5.76 4.31-7.56 10.02-7.56 15.35 0 6.29 2.76 12.16 7.89 15.62l51.81 40.8c5.76 4.5 11.71 6.05 17.85 5.84 7.2 0 13.34-2.84 17.47-6.72l51.48-40.46c5.54-4.13 7.19-9.8 7.19-14.75 0-6.29-2.76-11.74-6.87-15.68z" fill="#fff"/>
  <path d="m194.9 77.31-51-43.5c-5.76-4.89-11.81-7.15-18.9-7.15-7.64 0-14.12 3.05-17.92 6.73l-51.48 43.71c-5.37 4.31-7.52 9.41-7.52 15.28 0 6.5 2.97 12.37 7.73 15.63l50.24 41.33c6.25 5.29 12.59 7.05 18.95 6.84 7.74 0 14.5-2.84 18.42-6.95l50.96-41.75c5.76-4.69 7.4-10.35 7.4-15.31 0-6.29-2.98-11.54-6.88-14.86z" fill="#fff"/>
</svg>